 <svg id="content"
	xmlns="http://www.w3.org/2000/svg"
	width="120" height="120" viewBox="0 0 120 120"
    >
	<path fill="#999999" d="M106.49561,69.17578a16.99839,16.99839,0,0,1-6.38184,13.39258,18.57607,18.57607,0,0,1-11.14063,4.43457L25.39746,87c-5.29687,0-8.35986-2.18945-9.99658-4.02637a1.50025,1.50025,0,1,1,2.24023-1.99609C19.42773,82.9834,22.0376,84,25.39746,84l63.57568.00293c5.21192,0,14.52247-4.95508,14.52247-14.82715,0-6.74414-4.86573-16.24219-15.6836-16.24219a1.50025,1.50025,0,0,1-1.4707-1.79589,14.12031,14.12031,0,0,0,.27685-2.65332A18.11258,18.11258,0,0,0,68.6084,30.31445h-.11914c-15.62158,0-19.64649,14.35157-19.81055,14.96485a1.50016,1.50016,0,0,1-1.8418,1.05859,19.98086,19.98086,0,0,0-5.23388-.69727,16.02434,16.02434,0,0,0-12.48682,5.68165A1.5,1.5,0,0,1,26.7998,49.416,19.01066,19.01066,0,0,1,41.603,42.64062a23.03157,23.03157,0,0,1,4.60937.4668c2.25342-6.45117,8.98731-15.793,22.27735-15.793h.13232A21.11737,21.11737,0,0,1,89.61816,48.50488c-.00439.50782-.03173,1.0166-.08154,1.52246C97.09082,50.834,106.49561,56.8623,106.49561,69.17578Zm-81.5879,5.19629a1.49984,1.49984,0,0,0,2.1211-2.12109l-6.70752-6.708,6.70752-6.707a1.49984,1.49984,0,0,0-2.1211-2.1211l-6.70751,6.707-6.70752-6.707a1.49984,1.49984,0,0,0-2.1211,2.1211l6.70752,6.707L9.37158,72.251a1.49984,1.49984,0,1,0,2.1211,2.12109l6.70752-6.708Z" />
</svg>
